<!DOCTYPE svg PUBLIC "-//W3C//DTD SVG 20010904//EN" "http://www.w3.org/TR/2001/REC-SVG-20010904/DTD/svg10.dtd">
<svg version="1.0" fill-opacity=".1" xmlns="http://www.w3.org/2000/svg" width="446px" height="433px" viewBox="0 0 4460 4330" preserveAspectRatio="xMidYMid meet">
<g id="layer101" fill="#ffffff" stroke="none">
 <path d="M1930 4319 c-577 -65 -1125 -374 -1476 -830 -245 -320 -410 -732 -440 -1098 l-7 -83 54 57 c141 149 312 230 640 300 427 92 526 130 643 247 l69 69 -5 -80 c-9 -148 -90 -254 -264 -343 -125 -65 -227 -98 -557 -184 -296 -77 -454 -127 -539 -170 l-48 -24 0 -55 c0 -30 1 -55 3 -55 2 0 47 18 100 40 138 56 311 109 611 185 310 78 411 111 527 171 184 95 274 242 255 416 -3 32 -2 58 2 58 5 0 22 -17 39 -38 74 -92 118 -229 110 -342 -7 -99 -39 -171 -109 -246 -147 -156 -338 -240 -828 -364 -242 -61 -413 -117 -573 -187 -45 -19 -84 -37 -86 -39 -4 -4 20 -124 25 -124 2 0 27 10 56 21 127 51 271 95 523 159 318 81 427 115 587 182 208 88 363 199 449 322 69 98 91 161 97 281 8 179 -52 350 -161 457 -34 33 -178 148 -321 256 -180 137 -254 199 -245 205 8 4 72 43 143 87 71 44 149 87 173 96 l44 17 55 -39 c184 -126 335 -320 459 -588 60 -132 68 -145 59 -95 -16 90 -85 265 -189 479 -62 129 -126 272 -142 317 -28 82 -28 82 -8 98 121 93 487 325 514 325 32 0 483 -290 519 -333 18 -22 -23 -129 -153 -399 -111 -228 -177 -397 -189 -483 -6 -36 -5 -38 6 -15 6 14 37 80 68 146 116 246 250 414 438 549 50 36 55 37 90 27 20 -6 62 -26 92 -45 51 -31 208 -127 238 -144 8 -5 -72 -72 -241 -201 -310 -235 -364 -283 -404 -359 -140 -262 -110 -526 81 -718 178 -178 423 -286 966 -424 255 -64 474 -132 541 -167 15 -8 30 -14 33 -14 3 0 10 19 16 43 6 23 14 50 16 60 12 38 -290 150 -665 247 -332 86 -425 116 -576 190 -250 122 -355 253 -355 444 0 127 50 264 123 334 l32 31 -3 -78 c-11 -232 120 -375 438 -482 48 -16 204 -58 346 -94 298 -76 473 -129 609 -184 l95 -39 0 57 0 58 -75 32 c-115 48 -207 76 -495 151 -146 38 -307 83 -359 99 -203 67 -352 158 -415 253 -35 52 -66 147 -66 199 0 59 9 58 73 -8 109 -113 219 -156 646 -248 324 -69 513 -159 644 -304 21 -24 40 -41 43 -39 2 3 -1 42 -6 89 -62 509 -306 993 -673 1334 -351 326 -794 527 -1266 575 -119 12 -342 11 -451 -1z"/>
 <path d="M1955 1688 c-110 -78 -308 -194 -450 -263 -177 -86 -397 -171 -800 -310 -187 -65 -344 -121 -348 -125 -10 -9 85 -141 185 -257 224 -258 553 -485 878 -603 132 -49 332 -97 480 -115 161 -21 458 -16 610 10 519 87 983 351 1315 747 94 111 159 208 149 218 -5 4 -142 54 -304 110 -529 183 -657 233 -881 346 -138 69 -271 147 -392 230 -86 59 -102 66 -70 32 12 -13 49 -68 83 -122 55 -87 61 -103 56 -135 -8 -52 -51 -158 -160 -398 -53 -117 -103 -230 -112 -252 -17 -44 -31 -52 -41 -23 -3 9 -57 130 -118 267 -121 268 -165 381 -165 422 0 26 100 198 140 241 36 39 19 32 -55 -20z"/>
 </g>

</svg>